HIERARCHY
ROOT root
{
	OFFSET 0.000000 0.000000 0.000000
	CHANNELS 6 Xposition Yposition Zposition Zrotation Yrotation Xrotation
	JOINT lhip
	{
		OFFSET 0.058581 -0.082280 -0.017664
		CHANNELS 3 Zrotation Yrotation Xrotation
		JOINT lknee
		{
			OFFSET 0.043451 -0.386469 0.008037
			CHANNELS 3 Zrotation Yrotation Xrotation
			JOINT lankle
			{
				OFFSET -0.014790 -0.426874 -0.037428
				CHANNELS 3 Zrotation Yrotation Xrotation
				JOINT ltoe
				{
					OFFSET 0.041054 -0.060286 0.122042
					CHANNELS 3 Zrotation Yrotation Xrotation
					End Site
					{
						OFFSET 0.000000 0.000000 0.000000
					}
				}
			}
		}
	}
	JOINT rhip
	{
		OFFSET -0.060310 -0.090513 -0.013543
		CHANNELS 3 Zrotation Yrotation Xrotation
		JOINT rknee
		{
			OFFSET -0.043257 -0.383688 -0.004843
			CHANNELS 3 Zrotation Yrotation Xrotation
			JOINT rankle
			{
				OFFSET 0.019056 -0.420046 -0.034562
				CHANNELS 3 Zrotation Yrotation Xrotation
				JOINT rtoe
				{
					OFFSET -0.034840 -0.062106 0.130323
					CHANNELS 3 Zrotation Yrotation Xrotation
					End Site
					{
						OFFSET 0.000000 0.000000 0.000000
					}
				}
			}
		}
	}
	JOINT lowerback
	{
		OFFSET 0.004439 0.124404 -0.038385
		CHANNELS 3 Zrotation Yrotation Xrotation
		JOINT upperback
		{
			OFFSET 0.004488 0.137956 0.026820
			CHANNELS 3 Zrotation Yrotation Xrotation
			JOINT chest
			{
				OFFSET -0.002265 0.056032 0.002855
				CHANNELS 3 Zrotation Yrotation Xrotation
				JOINT lowerneck
				{
					OFFSET -0.013390 0.211636 -0.033468
					CHANNELS 3 Zrotation Yrotation Xrotation
					JOINT upperneck
					{
						OFFSET 0.010113 0.088937 0.050410
						CHANNELS 3 Zrotation Yrotation Xrotation
						End Site
						{
							OFFSET 0.000000 0.000000 0.000000
						}
					}
				}
				JOINT lclavicle
				{
					OFFSET 0.071702 0.114000 -0.018898
					CHANNELS 3 Zrotation Yrotation Xrotation
					JOINT lshoulder
					{
						OFFSET 0.122921 0.045205 -0.019046
						CHANNELS 3 Zrotation Yrotation Xrotation
						JOINT lelbow
						{
							OFFSET 0.255332 -0.015649 -0.022946
							CHANNELS 3 Zrotation Yrotation Xrotation
							JOINT lwrist
							{
								OFFSET 0.265709 0.012698 -0.007375
								CHANNELS 3 Zrotation Yrotation Xrotation
								End Site
								{
									OFFSET 0.000000 0.000000 0.000000
								}
							}
						}
					}
				}
				JOINT rclavicle
				{
					OFFSET -0.082954 0.112472 -0.023707
					CHANNELS 3 Zrotation Yrotation Xrotation
					JOINT rshoulder
					{
						OFFSET -0.113228 0.046853 -0.008472
						CHANNELS 3 Zrotation Yrotation Xrotation
						JOINT relbow
						{
							OFFSET -0.260127 -0.014369 -0.031269
							CHANNELS 3 Zrotation Yrotation Xrotation
							JOINT rwrist
							{
								OFFSET -0.269108 0.006794 -0.006027
								CHANNELS 3 Zrotation Yrotation Xrotation
								End Site
								{
									OFFSET 0.000000 0.000000 0.000000
								}
							}
						}
					}
				}
			}
		}
	}
}
MOTION
Frames: 8
Frame Time: 0.033333
0.300552 0.279486 0.808617 88.157135 1.990253 76.367984 14.180373 5.824688 -24.734520 -9.434263 4.849098 72.652032 0.835917 16.639219 -36.475362 0.000000 -0.000000 0.000000 -9.692051 -6.621998 -26.879545 5.536640 -3.126972 72.247270 0.275825 -8.558915 -33.840805 0.000000 -0.000000 0.000000 1.681690 0.953354 32.805778 1.163322 -4.067118 0.884102 1.117989 -0.119653 6.110121 0.830037 2.242568 -12.497352 5.419941 -3.069547 -12.221398 13.343555 -26.254481 -18.076917 -15.501538 -26.268314 -9.866759 30.754764 -61.154955 -21.514485 17.443636 -4.070586 -12.337658 -14.048075 25.000040 -15.476080 16.456466 29.161595 -10.424047 -32.398388 58.211541 -18.970274 -7.384083 3.635104 -0.628789 
0.300565 0.279760 0.808499 88.160322 2.025284 76.442891 14.287557 5.709546 -24.800662 -9.194989 5.095234 72.672450 0.908372 16.375314 -36.508568 0.000000 -0.000000 0.000000 -9.815026 -6.377478 -26.900446 5.520318 -3.452839 72.175604 0.210178 -8.532681 -33.853127 0.000000 -0.000000 0.000000 1.738319 0.977315 32.670992 1.183121 -4.096468 1.198657 1.101368 -0.129013 5.848275 0.805022 2.247379 -12.458472 5.452112 -3.111690 -12.260265 13.283524 -26.357725 -18.072582 -15.379602 -26.211057 -9.921058 30.479528 -61.201557 -21.808744 17.382914 -4.222035 -11.626830 -13.964797 24.961191 -15.336678 16.281340 29.140992 -10.667587 -31.961941 58.265152 -18.890020 -7.387890 3.687941 -0.252988 
0.300778 0.279971 0.808410 88.165394 2.040120 76.454901 14.303963 5.723316 -24.815303 -9.198929 5.129443 72.708989 0.968216 16.376730 -36.536391 0.000000 -0.000000 0.000000 -9.829063 -6.378074 -26.886248 5.537191 -3.464258 72.168394 0.206669 -8.528135 -33.847099 0.000000 -0.000000 0.000000 1.731865 0.980498 32.665336 1.200849 -4.104933 1.218743 1.104969 -0.153890 5.851446 0.825548 2.240259 -12.462981 5.445631 -3.121158 -12.239499 13.253828 -26.356346 -18.047041 -15.384454 -26.198329 -9.898918 30.434704 -61.233209 -21.670598 17.407101 -4.211262 -11.485160 -13.923611 24.943973 -15.320512 16.262108 29.135765 -10.659909 -31.795059 58.226178 -18.753580 -7.481037 3.687219 -0.231185 
0.301046 0.280168 0.808306 88.161314 2.057781 76.464342 14.305789 5.716078 -24.811988 -9.196466 5.132754 72.738376 0.935632 16.403508 -36.592679 0.000000 -0.000000 0.000000 -9.836301 -6.373387 -26.878941 5.544086 -3.474447 72.180013 0.222068 -8.526613 -33.894656 0.000000 -0.000000 0.000000 1.725996 0.962721 32.673333 1.195706 -4.115107 1.205568 1.093714 -0.151898 5.839270 0.838980 2.277838 -12.465024 5.444074 -3.124221 -12.188777 13.196735 -26.371166 -18.014545 -15.352082 -26.189224 -9.924496 30.225364 -61.266293 -21.459402 17.308133 -4.273606 -11.344258 -13.867217 24.972295 -15.269508 16.244043 29.116804 -10.673602 -31.627662 58.146578 -18.608959 -7.474049 3.649947 -0.158929 
0.301256 0.280324 0.808187 88.156776 2.066935 76.468062 14.287098 5.705798 -24.827432 -9.171383 5.122559 72.787495 0.956853 16.407642 -36.626837 0.000000 -0.000000 0.000000 -9.840482 -6.361912 -26.880005 5.535377 -3.477417 72.200797 0.240528 -8.507297 -33.908162 0.000000 -0.000000 0.000000 1.719414 0.954472 32.651417 1.197705 -4.123477 1.267466 1.084805 -0.170860 5.860683 0.864978 2.224460 -12.502339 5.448470 -3.197073 -12.232073 13.195187 -26.316518 -18.016136 -15.391608 -26.152094 -9.855455 30.414050 -61.308612 -21.515519 17.230597 -4.253020 -11.244675 -13.870638 24.929542 -15.342334 16.293312 29.144320 -10.635752 -31.568805 58.125973 -18.538072 -7.099984 3.588680 -0.204825 
0.301530 0.280511 0.808038 88.131041 2.074182 76.461200 14.280866 5.703889 -24.809752 -9.151627 5.126913 72.835927 0.953884 16.422324 -36.678617 0.000000 -0.000000 0.000000 -9.850782 -6.345148 -26.866866 5.535446 -3.485801 72.221455 0.242504 -8.484222 -33.942136 0.000000 -0.000000 0.000000 1.721547 0.961789 32.640777 1.191189 -4.112481 1.305031 1.074932 -0.184723 5.853076 0.889824 2.214659 -12.528275 5.418793 -3.241059 -12.209571 13.126162 -26.343540 -17.996907 -15.344679 -26.106629 -9.865025 30.406946 -61.335232 -21.347062 17.212683 -4.452459 -10.778518 -13.832415 24.949419 -15.320962 16.215099 29.094536 -10.661098 -31.386376 58.166081 -18.377586 -7.117992 3.649078 -0.216436 
0.301842 0.280705 0.807947 88.098797 2.084213 76.469559 14.277720 5.715573 -24.800294 -9.138561 5.129095 72.875321 0.918821 16.433645 -36.738691 0.000000 -0.000000 0.000000 -9.857036 -6.336923 -26.866819 5.530971 -3.485679 72.244048 0.259729 -8.466139 -33.959776 0.000000 -0.000000 0.000000 1.728560 0.953970 32.633431 1.175075 -4.107645 1.304776 1.061775 -0.177826 5.849819 0.906553 2.210201 -12.542594 5.400957 -3.254760 -12.194332 13.083855 -26.361663 -17.970399 -15.341472 -26.037467 -9.849144 30.435993 -61.370798 -21.163229 17.308701 -4.629933 -10.378601 -13.832122 24.977521 -15.303054 16.196952 29.045937 -10.694454 -31.297998 58.185139 -18.205789 -7.125925 3.703391 -0.182785 
0.302134 0.280886 0.807916 88.084411 2.104820 76.490391 14.294618 5.731423 -24.799273 -9.145304 5.138571 72.888217 0.914469 16.446210 -36.762262 0.000000 -0.000000 0.000000 -9.850050 -6.345753 -26.872727 5.557344 -3.482827 72.239869 0.266405 -8.448179 -33.967709 0.000000 -0.000000 0.000000 1.742498 0.943922 32.635021 1.170381 -4.108297 1.299407 1.057623 -0.167823 5.841093 0.909214 2.177247 -12.549835 5.424272 -3.254756 -12.256172 13.068326 -26.372622 -17.958793 -15.348405 -25.991558 -9.820079 30.440176 -61.391892 -21.197817 17.412879 -4.586200 -10.416006 -13.843447 24.979566 -15.308366 16.201129 29.004241 -10.694665 -31.321806 58.213978 -18.242318 -7.190720 3.689282 -0.180986 
